<?xml version="1.0" standalone="no"?>
<!DOCTYPE svg PUBLIC "-//W3C//DTD SVG 20010904//EN"
 "http://www.w3.org/TR/2001/REC-SVG-20010904/DTD/svg10.dtd">
<svg version="1.0" xmlns="http://www.w3.org/2000/svg"
 width="256.000000pt" height="256.000000pt" viewBox="0 0 256.000000 256.000000"
 preserveAspectRatio="xMidYMid meet">
<metadata>
Created by potrace 1.14, written by Peter Selinger 2001-2017
</metadata>
<g transform="translate(0.000000,256.000000) scale(0.100000,-0.100000)"
fill="#000000" stroke="none">
<path d="M1909 2496 c-2 -2 -26 -7 -54 -10 -27 -3 -66 -7 -85 -10 -19 -3 -91
-13 -160 -21 -69 -9 -142 -18 -162 -21 -21 -3 -52 -7 -70 -9 -87 -11 -135 -17
-158 -20 -14 -2 -65 -9 -115 -15 -49 -6 -101 -13 -115 -15 -14 -2 -50 -7 -80
-10 -30 -3 -66 -8 -80 -10 -14 -2 -45 -7 -70 -10 -61 -7 -130 -16 -160 -21
-14 -2 -72 -9 -128 -15 -83 -10 -108 -16 -123 -33 -20 -21 -44 -91 -55 -161
-10 -64 -11 -295 -2 -295 5 0 7 -4 4 -9 -5 -7 10 -129 29 -242 3 -14 7 -43 10
-65 8 -67 17 -128 21 -154 2 -14 8 -54 14 -90 11 -74 20 -134 25 -170 2 -14
11 -74 20 -135 9 -60 18 -121 20 -135 11 -68 25 -159 30 -195 3 -22 13 -83 21
-135 19 -119 21 -135 29 -190 3 -25 9 -58 12 -75 3 -16 6 -36 6 -42 0 -7 4
-13 9 -13 5 0 7 -4 4 -9 -3 -5 4 -21 15 -35 20 -26 25 -27 83 -21 33 3 72 8
86 10 14 2 122 18 241 35 118 17 224 32 235 34 10 2 48 7 84 11 36 4 68 9 72
11 4 3 31 7 60 9 29 3 77 9 108 15 76 13 106 18 170 25 30 4 58 9 61 11 4 2
31 6 60 9 30 3 61 7 69 10 8 2 40 7 70 10 30 3 62 7 70 10 8 2 38 7 65 11 195
26 218 33 208 60 -4 10 -14 14 -29 11 -22 -4 -22 -4 -6 32 10 20 19 38 23 41
9 9 39 78 37 87 -1 4 2 31 7 58 5 28 8 69 7 93 -2 35 1 42 17 42 27 0 32 21
16 79 -7 28 -11 51 -9 51 2 0 -1 11 -6 26 -6 14 -12 39 -15 57 -4 18 -17 82
-30 142 -14 61 -26 119 -28 130 -2 11 -7 31 -10 45 -3 14 -20 88 -36 165 -42
195 -83 385 -135 625 -25 113 -48 221 -51 240 -3 19 -10 49 -15 65 -5 17 -12
45 -15 64 -10 59 -21 71 -69 71 -23 0 -45 -2 -47 -4z"/>
</g>
</svg>
